<svg width="240" height="240" viewBox="0 0 240 240" fill="none" xmlns="http://www.w3.org/2000/svg">
<path d="M49.2188 19.2188V64.2188H63.2812V19.2188H49.2188ZM176.719 19.2188V65.1562H190.781V19.2188H176.719ZM11.7188 26.7188V40.7812H40.7812V26.7188H11.7188ZM71.7188 26.7188V40.7812H168.281V26.7188H71.7188ZM199.219 26.7188V40.7812H228.281V26.7188H199.219ZM32.3438 64.2188V110.625L58.9688 117.281L32.3438 124.547V183.656C39.0891 182.016 45.9422 182.859 52.3594 185.25C60.75 188.297 68.7187 193.688 76.5469 199.359C92.2031 210.75 107.438 222.938 120 222.938C132.562 222.938 147.797 210.75 163.453 199.359C171.281 193.688 179.25 188.297 187.641 185.25C194.062 182.859 200.906 182.016 207.656 183.656V163.688L200.438 158.672L187.219 149.484L207.656 151.406V103.312L186.234 96.5156L207.656 92.0625V64.2188H199.219V73.5938H168.281V64.2188H71.7188V72.6562H40.7812V64.2188H32.3438ZM118.734 78.2812H118.875C125.859 78.5156 129.562 83.8594 131.297 85.5469C132.188 86.4375 132.141 86.2969 132.281 86.2969C134.859 85.125 135.469 84.5625 137.578 82.6875H139.172C143.859 82.6875 147.984 85.1719 150.75 88.6875C153.516 92.2031 155.062 96.8438 155.062 101.859C155.062 103.688 154.875 105.422 154.453 107.109C156.375 106.406 158.25 105.844 160.172 105.75C160.875 105.656 161.531 105.703 162.188 105.797C164.953 106.078 168.141 108.234 169.031 111.281C173.859 127.312 172.641 144.75 169.078 158.531C167.812 163.5 164.109 166.781 160.359 168.047C158.25 168.75 156.187 169.031 154.219 169.172C154.125 170.109 154.219 184.453 154.219 192.656H85.7812C85.7344 184.266 85.7812 176.391 85.7812 168.281C87.4219 154.078 89.9531 134.719 91.6875 119.297C85.5469 116.391 81.2344 110.484 81.2344 103.5C81.2344 93.5625 90 85.7812 100.266 85.7812C102.188 85.7812 104.109 86.0625 105.891 86.625C108.844 81.7031 113.344 78.2812 118.734 78.2812ZM118.688 86.7188C116.484 86.7656 113.672 88.7344 111.891 93.4688L110.203 98.0156L105.938 95.6719C104.25 94.7344 102.234 94.2188 100.266 94.2188C94.125 94.2188 89.6719 98.5312 89.6719 103.5C89.6719 108.469 94.125 112.781 100.266 112.781C102.797 112.781 105.234 111.984 107.062 110.625L110.766 107.859L113.203 111.797C114.984 114.75 117 115.781 118.734 115.781C120.938 115.781 123.797 113.766 125.625 108.938L128.859 100.266L133.266 108.375C134.906 111.328 137.062 112.594 139.172 112.594C140.906 112.594 142.594 111.703 144.094 109.828C145.547 107.953 146.625 105.094 146.625 101.859C146.625 98.625 145.547 95.7656 144.094 93.8906C142.969 92.4844 141.75 91.6406 140.438 91.2656C137.812 93.3281 135.375 94.5938 132.703 94.7344C129.562 94.875 126.984 93.0938 125.438 91.6406C122.438 88.7344 121.641 86.8594 118.688 86.7188ZM161.062 114.188C156.422 114.75 151.828 117.703 148.453 120.375L152.953 160.734C154.781 160.641 156.469 160.453 157.641 160.031C159.469 159.422 160.266 158.953 160.922 156.469C164.109 144.047 165.094 128.062 161.062 114.188ZM130.312 117.75C127.406 121.641 123.422 124.219 118.734 124.219C114.797 124.219 111.234 122.391 108.469 119.438C105.891 120.609 103.078 121.219 100.266 121.219H99.9844L94.7344 168.281H145.266L140.016 120.984C139.734 121.031 139.453 121.031 139.172 121.031C135.891 121.031 132.844 119.812 130.312 117.75ZM94.2188 176.719V184.219H145.781V176.719H94.2188Z" fill="#A9714B"/>
</svg>
